<svg width="27" height="33" viewBox="0 0 27 33" fill="none" xmlns="http://www.w3.org/2000/svg">
    <path d="M26.5367 28.448C26.0357 25.351 22.5337 24.35 17.7807 24.226C13.0267 24.101 7.76374 24.857 7.76374 24.857C3.66774 19.072 8.92974 16.189 10.2427 15.594C11.5567 14.999 15.4567 12.432 16.4657 8.36897C18.5927 -0.185035 13.7167 -0.150035 13.0227 0.0519647C12.3277 0.250965 11.3997 1.05196 11.3997 1.05196C11.2127 1.05196 9.96174 0.770965 9.52474 0.832965C9.08674 0.895965 9.02374 1.02096 8.42974 1.08296C7.83474 1.14596 7.92974 1.64596 7.77274 1.89596C7.61574 2.14696 6.91374 2.40696 6.91374 2.40696C6.31974 2.84496 7.08374 3.20996 7.08374 3.20996C7.30274 3.45996 9.11674 3.42896 9.11674 3.42896C8.95974 3.49196 8.70974 3.86696 8.55374 4.14896C8.39674 4.42896 7.61574 5.52396 7.61574 5.52396C7.61574 5.52396 7.24074 6.02496 8.21074 6.08696C9.18074 6.14896 11.3377 4.33496 11.3377 4.33496C12.7857 4.11596 12.6507 2.52196 13.2757 2.67696C13.9017 2.83296 15.7787 8.43197 10.5557 12.06C9.16674 13.025 6.39674 13.406 4.08174 16.689C1.76774 19.972 3.58174 24.569 3.58174 24.569C3.08174 24.632 2.01774 24.194 1.76774 21.631C1.36574 17.52 3.07674 16.858 3.54174 14.481C3.83174 13 2.70574 10.779 2.70574 14.063C2.70574 16.346 -0.131262 18.093 0.00473796 21.946C0.172738 26.729 4.98874 27.167 4.98874 27.167C8.89774 32.921 17.6547 31.982 19.2487 31.89C20.8457 31.794 27.0377 31.544 26.5367 28.448ZM10.1187 27.197C10.1187 27.197 15.9327 26.556 21.3767 27.337C21.3767 27.337 16.9207 28.698 10.1187 27.197Z" fill="#5976C0"/>
</svg>
